<mxfile host="app.diagrams.net" modified="2022-10-17T10:27:21.229Z" agent="5.0 (Windows NT 10.0; Win64; x64) AppleWebKit/537.36 (KHTML, like Gecko) Chrome/106.0.0.0 Safari/537.36 Edg/106.0.1370.42" etag="59cu1DKMvQrup9hjxZhS" version="20.4.0" type="github">
  <diagram id="cv-DA7wwlPbaC3wOzpLo" name="Page-1">
    <mxGraphModel dx="1185" dy="628" grid="1" gridSize="10" guides="1" tooltips="1" connect="1" arrows="1" fold="1" page="1" pageScale="1" pageWidth="850" pageHeight="1100" math="0" shadow="0">
      <root>
        <mxCell id="0" />
        <mxCell id="1" parent="0" />
        <mxCell id="HckMxnIuDeVK4cM45EuU-2" style="edgeStyle=orthogonalEdgeStyle;rounded=0;orthogonalLoop=1;jettySize=auto;html=1;" parent="1" source="HckMxnIuDeVK4cM45EuU-1" edge="1">
          <mxGeometry relative="1" as="geometry">
            <mxPoint x="425" y="90" as="targetPoint" />
          </mxGeometry>
        </mxCell>
        <mxCell id="HckMxnIuDeVK4cM45EuU-1" value="" style="ellipse;whiteSpace=wrap;html=1;aspect=fixed;fillColor=#878787;" parent="1" vertex="1">
          <mxGeometry x="405" y="10" width="40" height="40" as="geometry" />
        </mxCell>
        <mxCell id="HckMxnIuDeVK4cM45EuU-4" style="edgeStyle=orthogonalEdgeStyle;rounded=0;orthogonalLoop=1;jettySize=auto;html=1;" parent="1" source="HckMxnIuDeVK4cM45EuU-3" target="HckMxnIuDeVK4cM45EuU-5" edge="1">
          <mxGeometry relative="1" as="geometry">
            <mxPoint x="424.5" y="150" as="targetPoint" />
          </mxGeometry>
        </mxCell>
        <mxCell id="HckMxnIuDeVK4cM45EuU-3" value="Read a, b, h ,n" style="shape=parallelogram;perimeter=parallelogramPerimeter;whiteSpace=wrap;html=1;fixedSize=1;fillColor=#FFFFFF;" parent="1" vertex="1">
          <mxGeometry x="367" y="90" width="115" height="30" as="geometry" />
        </mxCell>
        <mxCell id="HckMxnIuDeVK4cM45EuU-6" style="edgeStyle=orthogonalEdgeStyle;rounded=0;orthogonalLoop=1;jettySize=auto;html=1;" parent="1" source="HckMxnIuDeVK4cM45EuU-5" edge="1">
          <mxGeometry relative="1" as="geometry">
            <mxPoint x="520" y="175" as="targetPoint" />
          </mxGeometry>
        </mxCell>
        <mxCell id="HckMxnIuDeVK4cM45EuU-8" style="edgeStyle=orthogonalEdgeStyle;rounded=0;orthogonalLoop=1;jettySize=auto;html=1;" parent="1" source="HckMxnIuDeVK4cM45EuU-5" edge="1">
          <mxGeometry relative="1" as="geometry">
            <mxPoint x="424.5" y="230" as="targetPoint" />
          </mxGeometry>
        </mxCell>
        <mxCell id="HckMxnIuDeVK4cM45EuU-5" value="" style="rhombus;whiteSpace=wrap;html=1;fillColor=#FFFFFF;" parent="1" vertex="1">
          <mxGeometry x="396.75" y="160" width="55.5" height="30" as="geometry" />
        </mxCell>
        <mxCell id="HckMxnIuDeVK4cM45EuU-7" value="[ a &amp;gt;= b ]" style="text;html=1;align=center;verticalAlign=middle;resizable=0;points=[];autosize=1;strokeColor=none;fillColor=none;" parent="1" vertex="1">
          <mxGeometry x="440" y="150" width="70" height="30" as="geometry" />
        </mxCell>
        <mxCell id="HckMxnIuDeVK4cM45EuU-10" style="edgeStyle=orthogonalEdgeStyle;rounded=0;orthogonalLoop=1;jettySize=auto;html=1;" parent="1" source="HckMxnIuDeVK4cM45EuU-9" edge="1">
          <mxGeometry relative="1" as="geometry">
            <mxPoint x="660" y="175" as="targetPoint" />
          </mxGeometry>
        </mxCell>
        <mxCell id="HckMxnIuDeVK4cM45EuU-9" value="print &quot;Wrong data&quot;" style="rounded=1;whiteSpace=wrap;html=1;fillColor=#FFFFFF;" parent="1" vertex="1">
          <mxGeometry x="520" y="162.5" width="100" height="25" as="geometry" />
        </mxCell>
        <mxCell id="HckMxnIuDeVK4cM45EuU-13" style="edgeStyle=orthogonalEdgeStyle;rounded=0;orthogonalLoop=1;jettySize=auto;html=1;" parent="1" source="HckMxnIuDeVK4cM45EuU-12" edge="1">
          <mxGeometry relative="1" as="geometry">
            <mxPoint x="520" y="245" as="targetPoint" />
          </mxGeometry>
        </mxCell>
        <mxCell id="HckMxnIuDeVK4cM45EuU-19" style="edgeStyle=orthogonalEdgeStyle;rounded=0;orthogonalLoop=1;jettySize=auto;html=1;" parent="1" source="HckMxnIuDeVK4cM45EuU-12" edge="1">
          <mxGeometry relative="1" as="geometry">
            <mxPoint x="424.5" y="300" as="targetPoint" />
          </mxGeometry>
        </mxCell>
        <mxCell id="HckMxnIuDeVK4cM45EuU-12" value="" style="rhombus;whiteSpace=wrap;html=1;fillColor=#FFFFFF;" parent="1" vertex="1">
          <mxGeometry x="396.75" y="230" width="55.5" height="30" as="geometry" />
        </mxCell>
        <mxCell id="HckMxnIuDeVK4cM45EuU-14" value="[ a &amp;lt; b ]" style="text;html=1;align=center;verticalAlign=middle;resizable=0;points=[];autosize=1;strokeColor=none;fillColor=none;" parent="1" vertex="1">
          <mxGeometry x="367" y="187.5" width="60" height="30" as="geometry" />
        </mxCell>
        <mxCell id="HckMxnIuDeVK4cM45EuU-15" value="[ h &amp;lt;= 0 ]" style="text;html=1;align=center;verticalAlign=middle;resizable=0;points=[];autosize=1;strokeColor=none;fillColor=none;" parent="1" vertex="1">
          <mxGeometry x="445" y="217.5" width="70" height="30" as="geometry" />
        </mxCell>
        <mxCell id="HckMxnIuDeVK4cM45EuU-17" style="edgeStyle=orthogonalEdgeStyle;rounded=0;orthogonalLoop=1;jettySize=auto;html=1;" parent="1" source="HckMxnIuDeVK4cM45EuU-16" edge="1">
          <mxGeometry relative="1" as="geometry">
            <mxPoint x="660" y="245" as="targetPoint" />
          </mxGeometry>
        </mxCell>
        <mxCell id="HckMxnIuDeVK4cM45EuU-16" value="print &quot;Wrong data&quot;" style="rounded=1;whiteSpace=wrap;html=1;fillColor=#FFFFFF;" parent="1" vertex="1">
          <mxGeometry x="520" y="232.5" width="100" height="25" as="geometry" />
        </mxCell>
        <mxCell id="HckMxnIuDeVK4cM45EuU-20" value="[ h &amp;gt; 0 ]" style="text;html=1;align=center;verticalAlign=middle;resizable=0;points=[];autosize=1;strokeColor=none;fillColor=none;" parent="1" vertex="1">
          <mxGeometry x="367" y="257.5" width="60" height="30" as="geometry" />
        </mxCell>
        <mxCell id="HckMxnIuDeVK4cM45EuU-22" style="edgeStyle=orthogonalEdgeStyle;rounded=0;orthogonalLoop=1;jettySize=auto;html=1;" parent="1" source="HckMxnIuDeVK4cM45EuU-21" edge="1">
          <mxGeometry relative="1" as="geometry">
            <mxPoint x="520" y="315" as="targetPoint" />
          </mxGeometry>
        </mxCell>
        <mxCell id="HckMxnIuDeVK4cM45EuU-27" style="edgeStyle=orthogonalEdgeStyle;rounded=0;orthogonalLoop=1;jettySize=auto;html=1;" parent="1" source="HckMxnIuDeVK4cM45EuU-21" edge="1">
          <mxGeometry relative="1" as="geometry">
            <mxPoint x="425" y="370" as="targetPoint" />
          </mxGeometry>
        </mxCell>
        <mxCell id="HckMxnIuDeVK4cM45EuU-21" value="" style="rhombus;whiteSpace=wrap;html=1;fillColor=#FFFFFF;" parent="1" vertex="1">
          <mxGeometry x="397.25" y="300" width="55.5" height="30" as="geometry" />
        </mxCell>
        <mxCell id="HckMxnIuDeVK4cM45EuU-24" style="edgeStyle=orthogonalEdgeStyle;rounded=0;orthogonalLoop=1;jettySize=auto;html=1;" parent="1" source="HckMxnIuDeVK4cM45EuU-23" edge="1">
          <mxGeometry relative="1" as="geometry">
            <mxPoint x="660" y="315" as="targetPoint" />
          </mxGeometry>
        </mxCell>
        <mxCell id="HckMxnIuDeVK4cM45EuU-23" value="print &quot;Wrong data&quot;" style="rounded=1;whiteSpace=wrap;html=1;fillColor=#FFFFFF;" parent="1" vertex="1">
          <mxGeometry x="520" y="302.5" width="100" height="25" as="geometry" />
        </mxCell>
        <mxCell id="HckMxnIuDeVK4cM45EuU-26" value="[ n &amp;lt;= 2 ]" style="text;html=1;align=center;verticalAlign=middle;resizable=0;points=[];autosize=1;strokeColor=none;fillColor=none;" parent="1" vertex="1">
          <mxGeometry x="440" y="287.5" width="70" height="30" as="geometry" />
        </mxCell>
        <mxCell id="HckMxnIuDeVK4cM45EuU-28" value="[ n &amp;gt; 2 ]" style="text;html=1;align=center;verticalAlign=middle;resizable=0;points=[];autosize=1;strokeColor=none;fillColor=none;" parent="1" vertex="1">
          <mxGeometry x="367" y="327.5" width="60" height="30" as="geometry" />
        </mxCell>
        <mxCell id="HckMxnIuDeVK4cM45EuU-30" style="edgeStyle=orthogonalEdgeStyle;rounded=0;orthogonalLoop=1;jettySize=auto;html=1;" parent="1" source="HckMxnIuDeVK4cM45EuU-29" edge="1">
          <mxGeometry relative="1" as="geometry">
            <mxPoint x="424.25" y="420" as="targetPoint" />
          </mxGeometry>
        </mxCell>
        <mxCell id="HckMxnIuDeVK4cM45EuU-29" value="x = a" style="rounded=1;whiteSpace=wrap;html=1;fillColor=#FFFFFF;" parent="1" vertex="1">
          <mxGeometry x="396.75" y="370" width="55" height="20" as="geometry" />
        </mxCell>
        <mxCell id="HckMxnIuDeVK4cM45EuU-33" style="edgeStyle=orthogonalEdgeStyle;rounded=0;orthogonalLoop=1;jettySize=auto;html=1;" parent="1" source="HckMxnIuDeVK4cM45EuU-32" edge="1">
          <mxGeometry relative="1" as="geometry">
            <mxPoint x="520" y="435" as="targetPoint" />
          </mxGeometry>
        </mxCell>
        <mxCell id="HckMxnIuDeVK4cM45EuU-39" style="edgeStyle=orthogonalEdgeStyle;rounded=0;orthogonalLoop=1;jettySize=auto;html=1;" parent="1" source="HckMxnIuDeVK4cM45EuU-32" edge="1">
          <mxGeometry relative="1" as="geometry">
            <mxPoint x="424.5" y="490" as="targetPoint" />
          </mxGeometry>
        </mxCell>
        <mxCell id="HckMxnIuDeVK4cM45EuU-32" value="" style="rhombus;whiteSpace=wrap;html=1;fillColor=#FFFFFF;" parent="1" vertex="1">
          <mxGeometry x="396.75" y="420" width="55.5" height="30" as="geometry" />
        </mxCell>
        <mxCell id="HckMxnIuDeVK4cM45EuU-34" value="[ x &amp;gt; b ]" style="text;html=1;align=center;verticalAlign=middle;resizable=0;points=[];autosize=1;strokeColor=none;fillColor=none;" parent="1" vertex="1">
          <mxGeometry x="445" y="410" width="60" height="30" as="geometry" />
        </mxCell>
        <mxCell id="HckMxnIuDeVK4cM45EuU-35" value="" style="ellipse;whiteSpace=wrap;html=1;aspect=fixed;fillColor=#878787;strokeColor=none;" parent="1" vertex="1">
          <mxGeometry x="520" y="418.75" width="32.5" height="32.5" as="geometry" />
        </mxCell>
        <mxCell id="HckMxnIuDeVK4cM45EuU-36" value="" style="ellipse;whiteSpace=wrap;html=1;aspect=fixed;fillColor=#878787;strokeColor=none;" parent="1" vertex="1">
          <mxGeometry x="660" y="298.75" width="32.5" height="32.5" as="geometry" />
        </mxCell>
        <mxCell id="HckMxnIuDeVK4cM45EuU-37" value="" style="ellipse;whiteSpace=wrap;html=1;aspect=fixed;fillColor=#878787;strokeColor=none;" parent="1" vertex="1">
          <mxGeometry x="660" y="228.75" width="32.5" height="32.5" as="geometry" />
        </mxCell>
        <mxCell id="HckMxnIuDeVK4cM45EuU-38" value="" style="ellipse;whiteSpace=wrap;html=1;aspect=fixed;fillColor=#878787;strokeColor=none;" parent="1" vertex="1">
          <mxGeometry x="660" y="158.75" width="32.5" height="32.5" as="geometry" />
        </mxCell>
        <mxCell id="HckMxnIuDeVK4cM45EuU-40" value="[ x &amp;lt;= b ]" style="text;html=1;align=center;verticalAlign=middle;resizable=0;points=[];autosize=1;strokeColor=none;fillColor=none;" parent="1" vertex="1">
          <mxGeometry x="362" y="440" width="70" height="30" as="geometry" />
        </mxCell>
        <mxCell id="HckMxnIuDeVK4cM45EuU-43" style="edgeStyle=orthogonalEdgeStyle;rounded=0;orthogonalLoop=1;jettySize=auto;html=1;" parent="1" source="HckMxnIuDeVK4cM45EuU-41" edge="1">
          <mxGeometry relative="1" as="geometry">
            <mxPoint x="640" y="530" as="targetPoint" />
          </mxGeometry>
        </mxCell>
        <mxCell id="HckMxnIuDeVK4cM45EuU-44" style="edgeStyle=orthogonalEdgeStyle;rounded=0;orthogonalLoop=1;jettySize=auto;html=1;" parent="1" source="HckMxnIuDeVK4cM45EuU-41" edge="1">
          <mxGeometry relative="1" as="geometry">
            <mxPoint x="220" y="530" as="targetPoint" />
          </mxGeometry>
        </mxCell>
        <mxCell id="HckMxnIuDeVK4cM45EuU-41" value="" style="rhombus;whiteSpace=wrap;html=1;fillColor=#FFFFFF;" parent="1" vertex="1">
          <mxGeometry x="397" y="490" width="55.5" height="30" as="geometry" />
        </mxCell>
        <mxCell id="HckMxnIuDeVK4cM45EuU-45" value="[ x &amp;gt;= 0 ]" style="text;html=1;align=center;verticalAlign=middle;resizable=0;points=[];autosize=1;strokeColor=none;fillColor=none;" parent="1" vertex="1">
          <mxGeometry x="447.75" y="480" width="70" height="30" as="geometry" />
        </mxCell>
        <mxCell id="HckMxnIuDeVK4cM45EuU-46" value="[ x &amp;lt; 0 ]" style="text;html=1;align=center;verticalAlign=middle;resizable=0;points=[];autosize=1;strokeColor=none;fillColor=none;" parent="1" vertex="1">
          <mxGeometry x="325" y="480" width="60" height="30" as="geometry" />
        </mxCell>
        <mxCell id="HckMxnIuDeVK4cM45EuU-52" style="edgeStyle=orthogonalEdgeStyle;rounded=0;orthogonalLoop=1;jettySize=auto;html=1;" parent="1" source="HckMxnIuDeVK4cM45EuU-47" edge="1">
          <mxGeometry relative="1" as="geometry">
            <mxPoint x="640" y="570" as="targetPoint" />
          </mxGeometry>
        </mxCell>
        <mxCell id="HckMxnIuDeVK4cM45EuU-47" value="y = 0" style="rounded=1;whiteSpace=wrap;html=1;fillColor=#FFFFFF;" parent="1" vertex="1">
          <mxGeometry x="610" y="530" width="60" height="20" as="geometry" />
        </mxCell>
        <mxCell id="HckMxnIuDeVK4cM45EuU-49" style="edgeStyle=orthogonalEdgeStyle;rounded=0;orthogonalLoop=1;jettySize=auto;html=1;" parent="1" source="HckMxnIuDeVK4cM45EuU-48" edge="1">
          <mxGeometry relative="1" as="geometry">
            <mxPoint x="220" y="570" as="targetPoint" />
          </mxGeometry>
        </mxCell>
        <mxCell id="HckMxnIuDeVK4cM45EuU-48" value="y = 0" style="rounded=1;whiteSpace=wrap;html=1;fillColor=#FFFFFF;" parent="1" vertex="1">
          <mxGeometry x="190" y="530" width="60" height="20" as="geometry" />
        </mxCell>
        <mxCell id="HckMxnIuDeVK4cM45EuU-60" style="edgeStyle=orthogonalEdgeStyle;rounded=0;orthogonalLoop=1;jettySize=auto;html=1;" parent="1" source="HckMxnIuDeVK4cM45EuU-50" edge="1">
          <mxGeometry relative="1" as="geometry">
            <mxPoint x="320" y="650" as="targetPoint" />
          </mxGeometry>
        </mxCell>
        <mxCell id="HckMxnIuDeVK4cM45EuU-104" style="edgeStyle=orthogonalEdgeStyle;rounded=0;orthogonalLoop=1;jettySize=auto;html=1;entryX=0.5;entryY=0;entryDx=0;entryDy=0;" parent="1" source="HckMxnIuDeVK4cM45EuU-50" target="HckMxnIuDeVK4cM45EuU-84" edge="1">
          <mxGeometry relative="1" as="geometry" />
        </mxCell>
        <mxCell id="HckMxnIuDeVK4cM45EuU-50" value="" style="rhombus;whiteSpace=wrap;html=1;fillColor=#FFFFFF;" parent="1" vertex="1">
          <mxGeometry x="192.25" y="610" width="55.5" height="30" as="geometry" />
        </mxCell>
        <mxCell id="HckMxnIuDeVK4cM45EuU-108" style="edgeStyle=orthogonalEdgeStyle;rounded=0;orthogonalLoop=1;jettySize=auto;html=1;" parent="1" source="HckMxnIuDeVK4cM45EuU-53" edge="1">
          <mxGeometry relative="1" as="geometry">
            <mxPoint x="740" y="830" as="targetPoint" />
          </mxGeometry>
        </mxCell>
        <mxCell id="HckMxnIuDeVK4cM45EuU-115" style="edgeStyle=orthogonalEdgeStyle;rounded=0;orthogonalLoop=1;jettySize=auto;html=1;" parent="1" source="HckMxnIuDeVK4cM45EuU-53" edge="1">
          <mxGeometry relative="1" as="geometry">
            <mxPoint x="540" y="660" as="targetPoint" />
          </mxGeometry>
        </mxCell>
        <mxCell id="HckMxnIuDeVK4cM45EuU-53" value="" style="rhombus;whiteSpace=wrap;html=1;fillColor=#FFFFFF;" parent="1" vertex="1">
          <mxGeometry x="612.25" y="610" width="55.5" height="30" as="geometry" />
        </mxCell>
        <mxCell id="HckMxnIuDeVK4cM45EuU-56" style="edgeStyle=orthogonalEdgeStyle;rounded=0;orthogonalLoop=1;jettySize=auto;html=1;" parent="1" source="HckMxnIuDeVK4cM45EuU-54" edge="1">
          <mxGeometry relative="1" as="geometry">
            <mxPoint x="220" y="610" as="targetPoint" />
          </mxGeometry>
        </mxCell>
        <mxCell id="HckMxnIuDeVK4cM45EuU-54" value="i = 0" style="rounded=1;whiteSpace=wrap;html=1;fillColor=#FFFFFF;" parent="1" vertex="1">
          <mxGeometry x="190" y="570" width="60" height="20" as="geometry" />
        </mxCell>
        <mxCell id="HckMxnIuDeVK4cM45EuU-59" style="edgeStyle=orthogonalEdgeStyle;rounded=0;orthogonalLoop=1;jettySize=auto;html=1;" parent="1" source="HckMxnIuDeVK4cM45EuU-55" edge="1">
          <mxGeometry relative="1" as="geometry">
            <mxPoint x="640" y="610" as="targetPoint" />
          </mxGeometry>
        </mxCell>
        <mxCell id="HckMxnIuDeVK4cM45EuU-55" value="i = 1" style="rounded=1;whiteSpace=wrap;html=1;fillColor=#FFFFFF;" parent="1" vertex="1">
          <mxGeometry x="610" y="570" width="60" height="20" as="geometry" />
        </mxCell>
        <mxCell id="HckMxnIuDeVK4cM45EuU-61" value="[ i &amp;lt;= n ]" style="text;html=1;align=center;verticalAlign=middle;resizable=0;points=[];autosize=1;strokeColor=none;fillColor=none;" parent="1" vertex="1">
          <mxGeometry x="240" y="600" width="70" height="30" as="geometry" />
        </mxCell>
        <mxCell id="HckMxnIuDeVK4cM45EuU-63" style="edgeStyle=orthogonalEdgeStyle;rounded=0;orthogonalLoop=1;jettySize=auto;html=1;" parent="1" source="HckMxnIuDeVK4cM45EuU-62" edge="1">
          <mxGeometry relative="1" as="geometry">
            <mxPoint x="320" y="690" as="targetPoint" />
          </mxGeometry>
        </mxCell>
        <mxCell id="HckMxnIuDeVK4cM45EuU-62" value="p = 1" style="rounded=1;whiteSpace=wrap;html=1;fillColor=#FFFFFF;" parent="1" vertex="1">
          <mxGeometry x="290" y="650" width="60" height="20" as="geometry" />
        </mxCell>
        <mxCell id="HckMxnIuDeVK4cM45EuU-65" style="edgeStyle=orthogonalEdgeStyle;rounded=0;orthogonalLoop=1;jettySize=auto;html=1;" parent="1" source="HckMxnIuDeVK4cM45EuU-64" edge="1">
          <mxGeometry relative="1" as="geometry">
            <mxPoint x="320" y="730" as="targetPoint" />
          </mxGeometry>
        </mxCell>
        <mxCell id="HckMxnIuDeVK4cM45EuU-64" value="j = i" style="rounded=1;whiteSpace=wrap;html=1;fillColor=#FFFFFF;" parent="1" vertex="1">
          <mxGeometry x="290" y="690" width="60" height="20" as="geometry" />
        </mxCell>
        <mxCell id="UIGJa-p6XVm1TPBori-I-2" value="" style="edgeStyle=orthogonalEdgeStyle;rounded=0;orthogonalLoop=1;jettySize=auto;html=1;" edge="1" parent="1" source="HckMxnIuDeVK4cM45EuU-66" target="HckMxnIuDeVK4cM45EuU-76">
          <mxGeometry relative="1" as="geometry" />
        </mxCell>
        <mxCell id="UIGJa-p6XVm1TPBori-I-9" style="edgeStyle=orthogonalEdgeStyle;rounded=0;orthogonalLoop=1;jettySize=auto;html=1;entryX=0.5;entryY=1;entryDx=0;entryDy=0;" edge="1" parent="1" source="HckMxnIuDeVK4cM45EuU-66" target="HckMxnIuDeVK4cM45EuU-79">
          <mxGeometry relative="1" as="geometry" />
        </mxCell>
        <mxCell id="HckMxnIuDeVK4cM45EuU-66" value="" style="rhombus;whiteSpace=wrap;html=1;fillColor=#FFFFFF;" parent="1" vertex="1">
          <mxGeometry x="292.25" y="730" width="55.5" height="30" as="geometry" />
        </mxCell>
        <mxCell id="HckMxnIuDeVK4cM45EuU-68" value="[ j &amp;lt; n ]" style="text;html=1;align=center;verticalAlign=middle;resizable=0;points=[];autosize=1;strokeColor=none;fillColor=none;" parent="1" vertex="1">
          <mxGeometry x="345" y="720" width="60" height="30" as="geometry" />
        </mxCell>
        <mxCell id="UIGJa-p6XVm1TPBori-I-5" style="edgeStyle=orthogonalEdgeStyle;rounded=0;orthogonalLoop=1;jettySize=auto;html=1;entryX=1;entryY=0.5;entryDx=0;entryDy=0;" edge="1" parent="1" source="HckMxnIuDeVK4cM45EuU-76" target="UIGJa-p6XVm1TPBori-I-4">
          <mxGeometry relative="1" as="geometry" />
        </mxCell>
        <mxCell id="HckMxnIuDeVK4cM45EuU-76" value="p = p * ( i² + j )" style="rounded=1;whiteSpace=wrap;html=1;fillColor=#FFFFFF;" parent="1" vertex="1">
          <mxGeometry x="402" y="780" width="88" height="20" as="geometry" />
        </mxCell>
        <mxCell id="UIGJa-p6XVm1TPBori-I-11" style="edgeStyle=orthogonalEdgeStyle;rounded=0;orthogonalLoop=1;jettySize=auto;html=1;entryX=0.5;entryY=1;entryDx=0;entryDy=0;" edge="1" parent="1" source="HckMxnIuDeVK4cM45EuU-79" target="UIGJa-p6XVm1TPBori-I-10">
          <mxGeometry relative="1" as="geometry" />
        </mxCell>
        <mxCell id="HckMxnIuDeVK4cM45EuU-79" value="y = y + p" style="rounded=1;whiteSpace=wrap;html=1;fillColor=#FFFFFF;" parent="1" vertex="1">
          <mxGeometry x="190" y="700" width="60" height="20" as="geometry" />
        </mxCell>
        <mxCell id="HckMxnIuDeVK4cM45EuU-82" value="[ j &amp;gt;= n ]" style="text;html=1;align=center;verticalAlign=middle;resizable=0;points=[];autosize=1;strokeColor=none;fillColor=none;" parent="1" vertex="1">
          <mxGeometry x="240" y="720" width="70" height="30" as="geometry" />
        </mxCell>
        <mxCell id="HckMxnIuDeVK4cM45EuU-105" style="edgeStyle=orthogonalEdgeStyle;rounded=0;orthogonalLoop=1;jettySize=auto;html=1;" parent="1" source="HckMxnIuDeVK4cM45EuU-84" edge="1">
          <mxGeometry relative="1" as="geometry">
            <mxPoint x="110" y="720" as="targetPoint" />
          </mxGeometry>
        </mxCell>
        <mxCell id="HckMxnIuDeVK4cM45EuU-84" value="y = y - 1" style="rounded=1;whiteSpace=wrap;html=1;fillColor=#FFFFFF;" parent="1" vertex="1">
          <mxGeometry x="80" y="660" width="60" height="20" as="geometry" />
        </mxCell>
        <mxCell id="HckMxnIuDeVK4cM45EuU-106" style="edgeStyle=orthogonalEdgeStyle;rounded=0;orthogonalLoop=1;jettySize=auto;html=1;" parent="1" source="HckMxnIuDeVK4cM45EuU-86" edge="1">
          <mxGeometry relative="1" as="geometry">
            <mxPoint x="110" y="830" as="targetPoint" />
          </mxGeometry>
        </mxCell>
        <mxCell id="HckMxnIuDeVK4cM45EuU-86" value="y = x - y" style="rounded=1;whiteSpace=wrap;html=1;fillColor=#FFFFFF;" parent="1" vertex="1">
          <mxGeometry x="80" y="720" width="60" height="20" as="geometry" />
        </mxCell>
        <mxCell id="HckMxnIuDeVK4cM45EuU-87" value="[ i &amp;gt; n ]" style="text;html=1;align=center;verticalAlign=middle;resizable=0;points=[];autosize=1;strokeColor=none;fillColor=none;" parent="1" vertex="1">
          <mxGeometry x="132.25" y="600" width="60" height="30" as="geometry" />
        </mxCell>
        <mxCell id="HckMxnIuDeVK4cM45EuU-92" value="[ i &amp;lt; n - 1 ]" style="text;html=1;align=center;verticalAlign=middle;resizable=0;points=[];autosize=1;strokeColor=none;fillColor=none;" parent="1" vertex="1">
          <mxGeometry x="532.25" y="600" width="80" height="30" as="geometry" />
        </mxCell>
        <mxCell id="HckMxnIuDeVK4cM45EuU-94" value="[ i &amp;gt;= n - 1 ]" style="text;html=1;align=center;verticalAlign=middle;resizable=0;points=[];autosize=1;strokeColor=none;fillColor=none;" parent="1" vertex="1">
          <mxGeometry x="660" y="600" width="80" height="30" as="geometry" />
        </mxCell>
        <mxCell id="HckMxnIuDeVK4cM45EuU-116" style="edgeStyle=orthogonalEdgeStyle;rounded=0;orthogonalLoop=1;jettySize=auto;html=1;" parent="1" source="HckMxnIuDeVK4cM45EuU-95" edge="1">
          <mxGeometry relative="1" as="geometry">
            <mxPoint x="539.0000000000002" y="720" as="targetPoint" />
          </mxGeometry>
        </mxCell>
        <mxCell id="HckMxnIuDeVK4cM45EuU-95" value="y = y + (i - x)³" style="rounded=1;whiteSpace=wrap;html=1;fillColor=#FFFFFF;" parent="1" vertex="1">
          <mxGeometry x="490" y="660" width="98" height="20" as="geometry" />
        </mxCell>
        <mxCell id="HckMxnIuDeVK4cM45EuU-110" style="edgeStyle=orthogonalEdgeStyle;rounded=0;orthogonalLoop=1;jettySize=auto;html=1;" parent="1" source="HckMxnIuDeVK4cM45EuU-101" edge="1">
          <mxGeometry relative="1" as="geometry">
            <mxPoint x="425" y="870" as="targetPoint" />
          </mxGeometry>
        </mxCell>
        <mxCell id="HckMxnIuDeVK4cM45EuU-101" value="print x, y" style="rounded=1;whiteSpace=wrap;html=1;fillColor=#FFFFFF;" parent="1" vertex="1">
          <mxGeometry x="395" y="820" width="60" height="20" as="geometry" />
        </mxCell>
        <mxCell id="HckMxnIuDeVK4cM45EuU-107" value="" style="endArrow=classic;html=1;rounded=0;entryX=0;entryY=0.5;entryDx=0;entryDy=0;" parent="1" target="HckMxnIuDeVK4cM45EuU-101" edge="1">
          <mxGeometry width="50" height="50" relative="1" as="geometry">
            <mxPoint x="110" y="830" as="sourcePoint" />
            <mxPoint x="370" y="830" as="targetPoint" />
          </mxGeometry>
        </mxCell>
        <mxCell id="HckMxnIuDeVK4cM45EuU-109" value="" style="endArrow=classic;html=1;rounded=0;entryX=1;entryY=0.5;entryDx=0;entryDy=0;" parent="1" target="HckMxnIuDeVK4cM45EuU-101" edge="1">
          <mxGeometry width="50" height="50" relative="1" as="geometry">
            <mxPoint x="740" y="830" as="sourcePoint" />
            <mxPoint x="410" y="690" as="targetPoint" />
          </mxGeometry>
        </mxCell>
        <mxCell id="HckMxnIuDeVK4cM45EuU-112" style="edgeStyle=orthogonalEdgeStyle;rounded=0;orthogonalLoop=1;jettySize=auto;html=1;" parent="1" source="HckMxnIuDeVK4cM45EuU-111" edge="1">
          <mxGeometry relative="1" as="geometry">
            <mxPoint x="40" y="430" as="targetPoint" />
          </mxGeometry>
        </mxCell>
        <mxCell id="HckMxnIuDeVK4cM45EuU-111" value="x = x + h" style="rounded=1;whiteSpace=wrap;html=1;fillColor=#FFFFFF;" parent="1" vertex="1">
          <mxGeometry x="395" y="870" width="60" height="20" as="geometry" />
        </mxCell>
        <mxCell id="HckMxnIuDeVK4cM45EuU-114" value="" style="endArrow=classic;html=1;rounded=0;entryX=0;entryY=0.5;entryDx=0;entryDy=0;" parent="1" target="HckMxnIuDeVK4cM45EuU-32" edge="1">
          <mxGeometry width="50" height="50" relative="1" as="geometry">
            <mxPoint x="40" y="435" as="sourcePoint" />
            <mxPoint x="470" y="660" as="targetPoint" />
          </mxGeometry>
        </mxCell>
        <mxCell id="HckMxnIuDeVK4cM45EuU-117" value="" style="endArrow=classic;html=1;rounded=0;" parent="1" edge="1">
          <mxGeometry width="50" height="50" relative="1" as="geometry">
            <mxPoint x="540" y="720" as="sourcePoint" />
            <mxPoint x="640" y="720" as="targetPoint" />
          </mxGeometry>
        </mxCell>
        <mxCell id="UIGJa-p6XVm1TPBori-I-7" style="edgeStyle=orthogonalEdgeStyle;rounded=0;orthogonalLoop=1;jettySize=auto;html=1;entryX=0.5;entryY=1;entryDx=0;entryDy=0;" edge="1" parent="1" source="UIGJa-p6XVm1TPBori-I-4" target="HckMxnIuDeVK4cM45EuU-66">
          <mxGeometry relative="1" as="geometry" />
        </mxCell>
        <mxCell id="UIGJa-p6XVm1TPBori-I-4" value="j = j + 1" style="rounded=1;whiteSpace=wrap;html=1;fillColor=#FFFFFF;" vertex="1" parent="1">
          <mxGeometry x="290" y="780" width="60" height="20" as="geometry" />
        </mxCell>
        <mxCell id="UIGJa-p6XVm1TPBori-I-12" style="edgeStyle=orthogonalEdgeStyle;rounded=0;orthogonalLoop=1;jettySize=auto;html=1;entryX=0.5;entryY=1;entryDx=0;entryDy=0;" edge="1" parent="1" source="UIGJa-p6XVm1TPBori-I-10" target="HckMxnIuDeVK4cM45EuU-50">
          <mxGeometry relative="1" as="geometry" />
        </mxCell>
        <mxCell id="UIGJa-p6XVm1TPBori-I-10" value="i = i + 1" style="rounded=1;whiteSpace=wrap;html=1;fillColor=#FFFFFF;" vertex="1" parent="1">
          <mxGeometry x="190" y="660" width="60" height="20" as="geometry" />
        </mxCell>
        <mxCell id="UIGJa-p6XVm1TPBori-I-15" style="edgeStyle=orthogonalEdgeStyle;rounded=0;orthogonalLoop=1;jettySize=auto;html=1;entryX=0.5;entryY=1;entryDx=0;entryDy=0;" edge="1" parent="1" source="UIGJa-p6XVm1TPBori-I-13" target="HckMxnIuDeVK4cM45EuU-53">
          <mxGeometry relative="1" as="geometry" />
        </mxCell>
        <mxCell id="UIGJa-p6XVm1TPBori-I-13" value="i = i + 1" style="rounded=1;whiteSpace=wrap;html=1;fillColor=#FFFFFF;" vertex="1" parent="1">
          <mxGeometry x="610.5" y="670" width="59" height="20" as="geometry" />
        </mxCell>
        <mxCell id="UIGJa-p6XVm1TPBori-I-14" value="" style="endArrow=classic;html=1;rounded=0;entryX=0.5;entryY=1;entryDx=0;entryDy=0;" edge="1" parent="1" target="UIGJa-p6XVm1TPBori-I-13">
          <mxGeometry width="50" height="50" relative="1" as="geometry">
            <mxPoint x="640" y="720" as="sourcePoint" />
            <mxPoint x="580" y="700" as="targetPoint" />
          </mxGeometry>
        </mxCell>
      </root>
    </mxGraphModel>
  </diagram>
</mxfile>
